# xmcd
#
# Track frame offsets: 
#        150
#        14910
#        33100
#        51587
#        73868
#        98694
#        116029
#        136762
#        160780
#        175893
#        195493
#        204089
#        215638
#
# Disc length: 3183 seconds
#
# Revision: 0
# Processed by: cddbd v1.5.2PL0 Copyright (c) Steve Scherf et al.
# Submitted via: ExactAudioCopy v0.90b4
#
DISCID=b80c6d0d
DTITLE=Scott Learmonth - The Loar of Monroe
DYEAR=2005
DGENRE=Bluegrass
TTITLE0=Old Danger Field
TTITLE1=Walk Beside Me
TTITLE2=]Into The West
TTITLE3=Jerusalem Ridge
TTITLE4=Southern Son
TTITLE5=Nashville Blues
TTITLE6=The Mountain
TTITLE7=The Loar of Monroe, Lonesome Fiddle Blues, Cold Mtn
TTITLE8=Ireland's Green Shore
TTITLE9=Last Incarnation Blues
TTITLE10=Bright Sunny South
TTITLE11=The Medicine Show
TTITLE12=So Many Miles Away
EXTD=
EXTT0=
EXTT1=
EXTT2=
EXTT3=
EXTT4=
EXTT5=
EXTT6=
EXTT7=
EXTT8=
EXTT9=
EXTT10=
EXTT11=
EXTT12=
PLAYORDER=
